<svg width="20" height="20" viewBox="0 0 20 20" fill="none" xmlns="http://www.w3.org/2000/svg">
<g clip-path="url(#clip0_5_50)">
<path d="M18.75 17.8688L2.13125 1.25L1.25 2.13125L5.25 6.1375L4.375 9.85625C4.35295 9.94941 4.35259 10.0464 4.37396 10.1397C4.39532 10.233 4.43785 10.3202 4.49824 10.3945C4.55863 10.4688 4.63529 10.5282 4.72228 10.5682C4.80928 10.6081 4.9043 10.6276 5 10.625H8.01875L6.875 18.0313C6.85435 18.1685 6.88001 18.3088 6.94791 18.4299C7.01581 18.551 7.1221 18.646 7.25 18.7C7.32944 18.7323 7.41426 18.7492 7.5 18.75C7.59545 18.7498 7.68958 18.7277 7.77516 18.6854C7.86075 18.6432 7.93553 18.5819 7.99375 18.5063L12.1687 13.05L17.8688 18.75L18.75 17.8688Z" fill="#9EA3A9"/>
<path d="M14.0813 10.5437L16.1188 7.88124C16.1844 7.79243 16.2254 7.68781 16.2374 7.57802C16.2495 7.46823 16.2323 7.35721 16.1875 7.25624C16.1405 7.14521 16.0624 7.05014 15.9626 6.9825C15.8628 6.91485 15.7455 6.87752 15.625 6.87499H12.6563L13.75 2.01249C13.7707 1.92026 13.7702 1.82452 13.7486 1.7325C13.7269 1.64049 13.6847 1.55458 13.625 1.48124C13.5649 1.40706 13.4885 1.34765 13.4019 1.30756C13.3152 1.26747 13.2205 1.24778 13.125 1.24999H6.875C6.73138 1.24615 6.59082 1.29191 6.47699 1.37957C6.36315 1.46722 6.28299 1.59141 6.25 1.73124L6.0625 2.54374L14.0813 10.5437Z" fill="#9EA3A9"/>
</g>
<defs>
<clipPath id="clip0_5_50">
<rect width="20" height="20" fill="white"/>
</clipPath>
</defs>
</svg>
